<svg xmlns="http://www.w3.org/2000/svg" version="1.1" xmlns:xlink="http://www.w3.org/1999/xlink" xmlns:svgjs="http://svgjs.dev/svgjs" width="107" height="78"><svg width="107" height="78" viewBox="0 0 107 78" fill="none" xmlns="http://www.w3.org/2000/svg">
<path d="M47.0399 3.07882C46.8985 3.50285 46.4745 3.78277 45.9812 3.71348C45.5571 3.57214 45.2772 3.15088 45.3465 2.65756C45.4879 2.2363 45.9119 1.95361 46.4052 2.02289C46.8292 2.16424 47.1092 2.58827 47.0399 3.07882Z" fill="black"></path>
<mask id="SvgjsMask1042" style="mask-type:luminance" maskUnits="userSpaceOnUse" x="36" y="0" width="4" height="4">
<path d="M36.5381 0.685547H39.3761V3.26577H36.5381V0.685547Z" fill="white"></path>
</mask>
<g mask="url(#mask0_1_607)">
<path d="M39.0682 2.02155C38.9268 2.58692 38.3615 2.86684 37.8681 2.7255C37.3055 2.58692 37.0228 2.02155 37.1642 1.531C37.3055 0.968393 37.8681 0.685705 38.3615 0.827049C38.9268 0.968393 39.2095 1.531 39.0682 2.02155Z" fill="black"></path>
</g>
<path d="M31.3809 2.79975C31.2395 3.43164 30.6049 3.78361 30.0395 3.64227C29.4048 3.5037 29.0528 2.86903 29.1942 2.30643C29.3355 1.67454 29.9702 1.32256 30.5328 1.46113C31.1675 1.60248 31.5222 2.23714 31.3809 2.79975Z" fill="black"></path>
<path d="M24.186 5.26038C24.0447 5.96433 23.3379 6.3163 22.634 6.17496C21.9273 6.03639 21.5753 5.33244 21.7166 4.62849C21.858 3.92454 22.5619 3.57256 23.2686 3.71391C23.9033 3.92454 24.3246 4.62849 24.186 5.26038Z" fill="black"></path>
<path d="M17.6952 9.26893C17.4845 10.0449 16.7778 10.4662 16.0018 10.2556C15.2258 10.0449 14.8045 9.34099 15.0152 8.56775C15.2258 7.79175 15.9325 7.37049 16.7085 7.58112C17.4125 7.72246 17.8365 8.4957 17.6952 9.26893Z" fill="black"></path>
<path d="M12.194 14.6205C11.9806 15.4658 11.1353 15.9564 10.3593 15.7457C9.51397 15.5351 9.01788 14.6898 9.23128 13.9166C9.44191 13.0713 10.29 12.5807 11.066 12.7914C11.842 13.002 12.4046 13.7752 12.194 14.6205Z" fill="black"></path>
<path d="M7.96175 21.1603C7.74834 22.0748 6.83099 22.5682 5.91641 22.3575C4.99906 22.1469 4.50574 21.2323 4.71637 20.315C4.927 19.4004 5.84435 18.9098 6.76171 19.1205C7.607 19.3311 8.17238 20.2457 7.96175 21.1603Z" fill="black"></path>
<path d="M5.20938 28.7607C4.99875 29.7474 4.00934 30.31 3.02271 30.0966C2.03607 29.886 1.47069 28.9021 1.68132 27.9155C1.89472 26.9316 2.88136 26.369 3.868 26.5796C4.85741 26.7902 5.42002 27.7769 5.20938 28.7607Z" fill="black"></path>
<mask id="SvgjsMask1041" style="mask-type:luminance" maskUnits="userSpaceOnUse" x="0" y="33" width="5" height="6">
<path d="M0 33.7759H4.6117V38.7423H0V33.7759Z" fill="white"></path>
</mask>
<g mask="url(#mask1_1_607)">
<path d="M4.22321 36.855C3.94052 37.9109 2.88182 38.5428 1.82313 38.2629C0.767201 37.9802 0.132538 36.9243 0.412454 35.8683C0.695143 34.8124 1.75384 34.1805 2.81254 34.4632C3.86846 34.7431 4.50589 35.7991 4.22321 36.855Z" fill="black"></path>
</g>
<path d="M5.14027 44.6658C4.85758 45.791 3.7296 46.4256 2.59884 46.143C1.47086 45.8603 0.836197 44.7351 1.11888 43.6098C1.40157 42.4846 2.52956 41.85 3.65754 42.1327C4.71624 42.4846 5.42018 43.6098 5.14027 44.6658Z" fill="black"></path>
<path d="M7.67907 52.0522C7.39638 53.2467 6.19634 53.9506 4.99907 53.6707C3.79903 53.388 3.09508 52.1907 3.37499 50.9962C3.65768 49.799 4.85772 49.095 6.05499 49.3777C7.25503 49.6576 8.03104 50.8549 7.67907 52.0522Z" fill="black"></path>
<path d="M11.7702 58.7366C11.4182 60.0032 10.1489 60.7764 8.87954 60.4244C7.60744 60.0725 6.83143 58.8059 7.18618 57.5393C7.53815 56.2728 8.80748 55.4996 10.0768 55.8515C11.3461 56.1314 12.1221 57.4701 11.7702 58.7366Z" fill="black"></path>
<path d="M17.271 64.3655C16.919 65.7014 15.5776 66.4746 14.239 66.1947C12.8976 65.8427 12.1216 64.5041 12.4043 63.1683C12.7563 61.8324 14.0977 61.0564 15.439 61.3391C16.7777 61.6911 17.5537 63.0269 17.271 64.3655Z" fill="black"></path>
<path d="M23.9033 68.7297C23.5514 70.1348 22.1379 70.9801 20.7273 70.6281C19.3166 70.2762 18.4713 68.8683 18.8233 67.4631C19.178 66.0552 20.5887 65.21 21.9994 65.5619C23.41 65.9139 24.2553 67.3218 23.9033 68.7297Z" fill="black"></path>
<path d="M31.6608 71.6834C31.3088 73.1606 29.7568 74.0752 28.2768 73.654C26.7941 73.302 25.8767 71.7527 26.3008 70.2755C26.6527 68.7984 28.2048 67.8838 29.6875 68.305C31.0982 68.657 32.0155 70.2063 31.6608 71.6834Z" fill="black"></path>
<path d="M39.845 72.7366C39.421 74.2831 37.869 75.1977 36.317 74.8457C34.7649 74.4244 33.8476 72.8779 34.2023 71.3287C34.6236 69.7822 36.1756 68.8649 37.7276 69.2168C39.2796 69.6409 40.2691 71.1874 39.845 72.7366Z" fill="black"></path>
<path d="M47.8159 72.0336C47.3919 73.6521 45.7706 74.636 44.1465 74.2147C42.5252 73.7935 41.5385 72.1749 41.9598 70.5564C42.3838 68.9379 44.0079 67.9512 45.6292 68.3753C47.2505 68.7965 48.2399 70.4151 47.8159 72.0336Z" fill="black"></path>
<path d="M55.293 69.6414C54.869 71.3293 53.1063 72.3852 51.413 71.9639C49.7196 71.5399 48.6609 69.7828 49.085 68.0922C49.509 66.4044 51.2716 65.3485 52.965 65.7697C54.7276 66.1937 55.7171 67.9509 55.293 69.6414Z" fill="black"></path>
<path d="M62.0628 65.7703C61.6387 67.5301 59.8068 68.5861 58.0414 68.1648C56.2787 67.7408 55.2201 65.9116 55.6441 64.1517C56.0681 62.3946 57.9028 61.3387 59.6655 61.76C61.4281 62.184 62.4868 63.9411 62.0628 65.7703Z" fill="black"></path>
<path d="M67.7784 60.496C67.2851 62.3252 65.4504 63.4531 63.6157 62.9598C61.781 62.4665 60.653 60.6373 61.1463 58.8082C61.6396 56.979 63.4743 55.8538 65.309 56.3444C67.1437 56.7684 68.2717 58.5976 67.7784 60.496Z" fill="black"></path>
<path d="M72.2928 53.9508C71.7995 55.852 69.8235 57.0465 67.9195 56.5532C66.0155 56.0627 64.8154 54.0922 65.3088 52.1909C65.8021 50.2925 67.7781 49.0952 69.6821 49.5885C71.6582 50.0819 72.7861 52.0524 72.2928 53.9508Z" fill="black"></path>
<path d="M75.325 46.4261C74.8317 48.3939 72.7863 49.5911 70.8103 49.0978C68.837 48.6073 67.637 46.5647 68.1303 44.5942C68.6236 42.6265 70.6689 41.4292 72.645 41.9225C74.621 42.4131 75.8183 44.4556 75.325 46.4261Z" fill="black"></path>
<path d="M42.2424 8.98883C42.1731 9.3408 41.8211 9.55143 41.4664 9.41009C41.1144 9.3408 40.9037 8.98883 41.0451 8.63685C41.1144 8.28488 41.4664 8.07425 41.8211 8.21559C42.101 8.28488 42.3144 8.63685 42.2424 8.98883Z" fill="black"></path>
<path d="M36.5299 8.21646C36.4578 8.56843 36.0338 8.84835 35.6818 8.707C35.3298 8.63772 35.0471 8.21646 35.1885 7.86448C35.2605 7.51251 35.6818 7.22982 36.0338 7.37116C36.3885 7.44045 36.5992 7.86448 36.5299 8.21646Z" fill="black"></path>
<path d="M30.9569 8.77926C30.8155 9.20052 30.3915 9.48321 29.9702 9.34187C29.5462 9.20052 29.2635 8.77926 29.4048 8.35523C29.5462 7.93397 29.9702 7.65405 30.3915 7.79262C30.8155 7.93397 31.0982 8.35523 30.9569 8.77926Z" fill="black"></path>
<path d="M25.7382 10.6086C25.5969 11.1019 25.1008 11.3818 24.6074 11.2405C24.1141 11.1019 23.8314 10.6086 23.9728 10.1153C24.1141 9.62197 24.6074 9.34205 25.1008 9.48339C25.5969 9.62197 25.8768 10.1153 25.7382 10.6086Z" fill="black"></path>
<path d="M21.0818 13.4197C20.9405 13.9851 20.3751 14.265 19.8818 14.1237C19.3164 13.9851 19.0365 13.4197 19.1779 12.9292C19.3164 12.3666 19.8818 12.0839 20.3751 12.2252C20.8684 12.3666 21.1511 12.9292 21.0818 13.4197Z" fill="black"></path>
<path d="M17.06 17.2913C16.9186 17.8539 16.284 18.2751 15.7186 18.0645C15.156 17.9232 14.7319 17.2913 14.9426 16.7287C15.0839 16.1661 15.7186 15.742 16.284 15.9527C16.8493 16.094 17.2013 16.7287 17.06 17.2913Z" fill="black"></path>
<path d="M14.0289 22.0779C13.8876 22.7125 13.1809 23.1338 12.5462 22.9232C11.9115 22.7818 11.4875 22.0779 11.7009 21.446C11.8423 20.8113 12.5462 20.39 13.1809 20.6007C13.7463 20.742 14.1675 21.3739 14.0289 22.0779Z" fill="black"></path>
<path d="M12.0526 27.5647C11.842 28.2687 11.1352 28.6927 10.4285 28.4821C9.72456 28.2687 9.30053 27.5647 9.51393 26.8635C9.72456 26.1596 10.4285 25.7355 11.1352 25.9489C11.7699 26.1596 12.1939 26.8635 12.0526 27.5647Z" fill="black"></path>
<path d="M11.3461 33.4068C11.1355 34.18 10.3595 34.6012 9.65556 34.3906C8.87955 34.18 8.45552 33.4068 8.66615 32.7028C8.87955 31.9296 9.65556 31.5055 10.3595 31.7162C11.0662 31.8575 11.5595 32.6307 11.3461 33.4068Z" fill="black"></path>
<path d="M11.9803 39.0327C11.7697 39.8059 10.9244 40.2992 10.1484 40.0886C9.37235 39.8752 8.87903 39.0327 9.08966 38.2594C9.30029 37.4834 10.1484 36.9929 10.9244 37.2035C11.7004 37.4141 12.1937 38.2594 11.9803 39.0327Z" fill="black"></path>
<path d="M13.8147 44.3816C13.6041 45.2269 12.7561 45.7895 11.8415 45.5788C10.9934 45.3682 10.428 44.5229 10.6414 43.6083C10.8521 42.763 11.7001 42.2004 12.6147 42.4111C13.5321 42.6245 14.0282 43.539 13.8147 44.3816Z" fill="black"></path>
<path d="M16.7781 49.1675C16.5675 50.0821 15.6501 50.6447 14.7328 50.4341C13.8154 50.2235 13.2528 49.3061 13.4634 48.3915C13.6741 47.4769 14.5914 46.9143 15.5088 47.125C16.4954 47.3384 16.9915 48.253 16.7781 49.1675Z" fill="black"></path>
<path d="M20.727 53.2493C20.5164 54.2359 19.5297 54.7985 18.5403 54.5879C17.5537 54.3745 16.9911 53.3906 17.2017 52.4067C17.4123 51.4201 18.4017 50.8575 19.3884 51.0681C20.375 51.3508 21.0097 52.3347 20.727 53.2493Z" fill="black"></path>
<path d="M25.5245 56.4152C25.2418 57.3991 24.2552 58.0338 23.1965 57.8204C22.2098 57.5404 21.5752 56.5538 21.7858 55.5006C22.0685 54.514 23.0551 53.8821 24.1138 54.0927C25.1725 54.3727 25.8072 55.4286 25.5245 56.4152Z" fill="black"></path>
<path d="M31.1674 58.5221C30.8875 59.578 29.8288 60.2127 28.7701 60.002C27.7114 59.7194 27.0768 58.6634 27.2874 57.6075C27.5701 56.5544 28.6288 55.9197 29.6875 56.1303C30.7462 56.3409 31.3808 57.4689 31.1674 58.5221Z" fill="black"></path>
<path d="M37.092 59.3695C36.8093 60.4948 35.6814 61.1987 34.5534 60.9188C33.4254 60.6361 32.7187 59.5109 33.0014 58.3857C33.2841 57.2577 34.412 56.5537 35.54 56.8364C36.6708 57.1191 37.3747 58.2443 37.092 59.3695Z" fill="black"></path>
<path d="M42.8074 58.8067C42.5247 60.004 41.3247 60.7052 40.1274 60.4253C38.9273 60.1426 38.2206 58.9481 38.5033 57.7508C38.786 56.5563 39.986 55.8524 41.1833 56.1323C42.3834 56.4843 43.0901 57.6815 42.8074 58.8067Z" fill="black"></path>
<path d="M48.2392 57.1168C47.9565 58.3113 46.6872 59.0846 45.4178 58.8046C44.2178 58.522 43.4418 57.2554 43.7245 55.9888C44.0072 54.7944 45.2765 54.0211 46.5458 54.301C47.8151 54.653 48.5191 55.8503 48.2392 57.1168Z" fill="black"></path>
<path d="M53.1064 54.2338C52.7544 55.5004 51.4823 56.2736 50.213 55.9909C48.9436 55.6389 48.1676 54.3724 48.4503 53.1058C48.8023 51.8393 50.0716 51.066 51.3437 51.3487C52.6823 51.7007 53.4583 52.9672 53.1064 54.2338Z" fill="black"></path>
<path d="M57.2658 50.4332C56.9138 51.769 55.5752 52.5422 54.2338 52.2623C52.8925 51.9104 52.1164 50.5717 52.3991 49.2359C52.7539 47.9001 54.0925 47.124 55.4339 47.4067C56.7725 47.7587 57.6206 49.0946 57.2658 50.4332Z" fill="black"></path>
<path d="M60.512 45.7891C60.1601 47.197 58.7494 48.0395 57.3387 47.6903C55.928 47.3384 55.08 45.9305 55.4347 44.5226C55.7867 43.1147 57.1974 42.2721 58.608 42.6241C60.0187 42.9761 60.8668 44.3812 60.512 45.7891Z" fill="black"></path>
<path d="M62.6978 40.3036C62.3459 41.7115 60.8659 42.6261 59.4525 42.2741C58.0418 41.9221 57.1272 40.445 57.4792 39.0371C57.8312 37.6292 59.3139 36.7146 60.7246 37.0665C62.2045 37.4185 63.0526 38.8957 62.6978 40.3036Z" fill="black"></path>
<mask id="SvgjsMask1040" style="mask-type:luminance" maskUnits="userSpaceOnUse" x="67" y="74" width="3" height="4">
<path d="M67.0474 74.925H69.1759V77.3113H67.0474V74.925Z" fill="white"></path>
</mask>
<g mask="url(#mask2_1_607)">
<path d="M67.1443 76.3983C67.1443 75.905 67.5656 75.553 68.0617 75.553C68.555 75.553 68.9069 75.977 68.9069 76.4676C68.9069 76.9609 68.4829 77.3129 67.9896 77.3129C67.4963 77.2436 67.1443 76.8195 67.1443 76.3983Z" fill="black"></path>
</g>
<path d="M75.1144 75.6909C75.1144 75.1283 75.6077 74.707 76.1731 74.707C76.7357 74.707 77.1597 75.1976 77.1597 75.763C77.1597 76.3256 76.6664 76.7468 76.101 76.7468C75.5356 76.7468 75.1144 76.2535 75.1144 75.6909Z" fill="black"></path>
<path d="M82.4503 73.3037C82.4503 72.669 83.0129 72.1785 83.6476 72.2477C84.285 72.2477 84.7784 72.8103 84.7063 73.445C84.7063 74.0769 84.1437 74.5702 83.509 74.5009C82.9437 74.5009 82.4503 73.9356 82.4503 73.3037Z" fill="black"></path>
<path d="M89.0101 69.433C89.0101 68.7291 89.6448 68.1665 90.3487 68.2358C91.0555 68.305 91.6208 68.8677 91.5488 69.5716C91.5488 70.2756 90.9141 70.8382 90.2074 70.7689C89.5727 70.6996 89.0101 70.1342 89.0101 69.433Z" fill="black"></path>
<path d="M94.5119 64.1555C94.5119 63.3823 95.2186 62.7504 95.9946 62.8197C96.7678 62.8197 97.4053 63.5236 97.3332 64.2968C97.3332 65.0729 96.6293 65.7047 95.8533 65.6355C95.0772 65.5634 94.5119 64.9315 94.5119 64.1555Z" fill="black"></path>
<path d="M98.7441 57.7499C98.7441 56.9046 99.5201 56.2727 100.368 56.2727C101.213 56.2727 101.848 56.9767 101.848 57.8912C101.848 58.7365 101.141 59.3684 100.227 59.3684C99.3788 59.2991 98.7441 58.5952 98.7441 57.7499Z" fill="black"></path>
<path d="M101.496 50.4362C101.496 49.5216 102.272 48.8176 103.259 48.8176C104.176 48.8176 104.88 49.5909 104.88 50.5747C104.88 51.4921 104.104 52.1933 103.118 52.1933C102.2 52.1933 101.496 51.42 101.496 50.4362Z" fill="black"></path>
<mask id="SvgjsMask1039" style="mask-type:luminance" maskUnits="userSpaceOnUse" x="102" y="40" width="5" height="5">
<path d="M102.521 40.1626H106.424V44.4196H102.521V40.1626Z" fill="white"></path>
</mask>
<g mask="url(#mask3_1_607)">
<path d="M102.624 42.4124C102.624 41.4285 103.469 40.6553 104.528 40.6553C105.515 40.6553 106.291 41.4978 106.291 42.5537C106.291 43.5404 105.446 44.3136 104.387 44.3136C103.328 44.2443 102.555 43.4683 102.624 42.4124Z" fill="black"></path>
</g>
<path d="M101.778 34.3892C101.847 33.3332 102.693 32.4907 103.824 32.4907C104.879 32.56 105.728 33.4053 105.728 34.5305C105.655 35.5864 104.81 36.429 103.682 36.429C102.623 36.3597 101.778 35.4451 101.778 34.3892Z" fill="black"></path>
<path d="M99.3089 26.8641C99.3782 25.7361 100.296 24.8215 101.496 24.8215C102.624 24.8936 103.541 25.8082 103.541 27.0027C103.469 28.1307 102.554 29.0452 101.354 29.0452C100.154 28.9732 99.2368 27.9893 99.3089 26.8641Z" fill="black"></path>
<path d="M95.2186 20.1795C95.2879 18.9822 96.2746 17.9984 97.5439 18.0677C98.7439 18.1369 99.7306 19.1236 99.6613 20.3901C99.592 21.5846 98.6026 22.5713 97.3333 22.502C96.1332 22.4299 95.1466 21.4461 95.2186 20.1795Z" fill="black"></path>
<path d="M89.7863 14.5467C89.8556 13.2801 90.9143 12.2242 92.2557 12.2935C93.5943 12.3656 94.5809 13.4187 94.5116 14.7573C94.4423 16.0239 93.3836 17.0798 92.0423 17.0078C90.7729 16.9385 89.7863 15.8825 89.7863 14.5467Z" fill="black"></path>
<path d="M83.2954 10.1861C83.3674 8.77819 84.4954 7.72227 85.9061 7.79155C87.3168 7.86361 88.3755 8.98882 88.3034 10.3967C88.2341 11.8018 87.1061 12.8578 85.6955 12.7885C84.2848 12.7192 83.2261 11.5912 83.2954 10.1861Z" fill="black"></path>
<path d="M75.8186 7.30177C75.8906 5.82181 77.0879 4.6966 78.5706 4.76866C80.0506 4.83794 81.1813 6.03521 81.1093 7.5124C81.04 8.98958 79.8399 10.1148 78.36 10.0455C76.9493 9.97345 75.7493 8.77895 75.8186 7.30177Z" fill="black"></path>
<path d="M67.6367 6.10286C67.7059 4.55362 68.9753 3.35912 70.5273 3.42841C72.0793 3.50046 73.2793 4.76702 73.2101 6.31349C73.138 7.86273 71.8687 9.05723 70.3167 8.98795C68.7646 8.91866 67.5646 7.6521 67.6367 6.10286Z" fill="black"></path>
<path d="M59.3836 6.73542C59.4529 5.11966 60.7942 3.8531 62.4155 3.92239C64.0396 3.99168 65.3089 5.33029 65.2397 6.94882C65.1676 8.56735 63.8262 9.83391 62.2049 9.76185C60.5836 9.69256 59.3836 8.35395 59.3836 6.73542Z" fill="black"></path>
<path d="M51.7648 9.13219C51.8369 7.4416 53.2475 6.17505 54.9409 6.17505C56.6315 6.24711 57.9036 7.65501 57.9036 9.34282C57.8315 11.0306 56.4209 12.2972 54.7275 12.2972C53.0341 12.2279 51.6955 10.82 51.7648 9.13219Z" fill="black"></path>
<path d="M44.9942 13.0696C45.0635 11.3125 46.5462 9.97388 48.3089 9.97388C50.0715 10.0459 51.4129 11.5231 51.4129 13.283C51.3436 15.0401 49.8609 16.3787 48.0982 16.3787C46.2635 16.2374 44.9222 14.8295 44.9942 13.0696Z" fill="black"></path>
<path d="M39.21 18.2753C39.2793 16.4462 40.8313 15.0383 42.666 15.1103C44.5007 15.1796 45.9114 16.7288 45.8393 18.558C45.77 20.3872 44.218 21.7951 42.3833 21.723C40.5486 21.6537 39.1379 20.1045 39.21 18.2753Z" fill="black"></path>
<path d="M34.6957 24.6823C34.765 22.7811 36.3891 21.3039 38.293 21.3732C40.197 21.4452 41.6798 23.0638 41.6077 24.9622C41.5384 26.8634 39.9143 28.3406 38.0104 28.2686C36.1064 28.1993 34.6236 26.5808 34.6957 24.6823Z" fill="black"></path>
<path d="M31.6605 31.9973C31.7325 30.0268 33.4259 28.4803 35.3991 28.5496C37.3752 28.6189 38.9272 30.3095 38.8579 32.2772C38.7859 34.2477 37.0925 35.797 35.1192 35.7277C33.1432 35.5863 31.5912 33.9678 31.6605 31.9973Z" fill="black"></path>
<path d="M30.3219 39.9471C30.3911 37.9073 32.0845 36.2888 34.2019 36.3581C36.2472 36.4274 37.8685 38.118 37.7992 40.2271C37.7272 42.2696 36.0338 43.8881 33.9192 43.8161C31.8739 43.7468 30.2498 42.0562 30.3219 39.9471Z" fill="black"></path>
<path d="M70.5993 69.5705C70.5993 69.2185 70.882 68.9386 71.234 69.0079C71.586 69.0079 71.8687 69.2906 71.7994 69.6426C71.7994 69.9946 71.5167 70.2745 71.1619 70.2052C70.81 70.2052 70.5273 69.9225 70.5993 69.5705Z" fill="black"></path>
<path d="M76.3112 69.1515C76.3112 68.7302 76.666 68.4475 77.0872 68.4475C77.5113 68.4475 77.794 68.7995 77.794 69.2207C77.794 69.6448 77.442 69.9247 77.0872 69.9247C76.5939 69.8554 76.3112 69.5034 76.3112 69.1515Z" fill="black"></path>
<path d="M81.6739 67.3882C81.6739 66.967 82.098 66.615 82.5192 66.615C82.9432 66.615 83.2952 67.0363 83.2952 67.4603C83.2952 67.8815 82.8712 68.2335 82.4499 68.2335C81.9566 68.2335 81.6019 67.8815 81.6739 67.3882Z" fill="black"></path>
<path d="M86.4003 64.5764C86.4003 64.0831 86.8243 63.6619 87.3176 63.6619C87.811 63.6619 88.235 64.0831 88.235 64.5764C88.235 65.067 87.811 65.491 87.3176 65.491C86.7523 65.491 86.331 65.067 86.4003 64.5764Z" fill="black"></path>
<path d="M90.3492 60.7781C90.3492 60.2155 90.8453 59.7915 91.4079 59.7915C91.9733 59.7915 92.3946 60.2848 92.3946 60.8474C92.3946 61.41 91.9013 61.8341 91.3387 61.8341C90.7733 61.762 90.3492 61.3407 90.3492 60.7781Z" fill="black"></path>
<path d="M93.3833 56.131C93.3833 55.4991 93.9459 55.0058 94.5113 55.0751C95.146 55.0751 95.6393 55.6377 95.57 56.2031C95.57 56.835 95.0046 57.3283 94.442 57.2562C93.8767 57.2562 93.3833 56.7657 93.3833 56.131Z" fill="black"></path>
<path d="M95.4287 50.8538C95.4287 50.2219 95.994 49.6565 96.698 49.6565C97.3326 49.6565 97.898 50.2219 97.898 50.923C97.898 51.5577 97.3326 52.1203 96.6287 52.1203C95.922 52.1203 95.3566 51.5577 95.4287 50.8538Z" fill="black"></path>
<path d="M96.2052 45.0844C96.2052 44.3805 96.8399 43.8179 97.5438 43.8179C98.2506 43.8179 98.8159 44.4525 98.8159 45.1565C98.8159 45.8577 98.1813 46.423 97.4746 46.423C96.6985 46.423 96.1332 45.7884 96.2052 45.0844Z" fill="black"></path>
<path d="M95.6399 39.2462C95.6399 38.473 96.3467 37.8383 97.1227 37.9104C97.8987 37.9104 98.5333 38.6116 98.4613 39.3876C98.4613 40.1608 97.7573 40.7927 96.9813 40.7234C96.2053 40.6541 95.5707 40.0195 95.6399 39.2462Z" fill="black"></path>
<path d="M93.8074 33.827C93.8074 32.9817 94.5114 32.3499 95.3567 32.3499C96.2047 32.3499 96.8394 33.0538 96.8394 33.8963C96.8394 34.7416 96.1327 35.3763 95.2874 35.3763C94.37 35.3763 93.7354 34.6723 93.8074 33.827Z" fill="black"></path>
<path d="M90.8452 29.0456C90.8452 28.131 91.6212 27.4963 92.5358 27.4963C93.4532 27.4963 94.0878 28.2696 94.0878 29.1842C94.0878 30.0987 93.3118 30.7334 92.3945 30.7334C91.4799 30.6641 90.8452 29.8881 90.8452 29.0456Z" fill="black"></path>
<path d="M86.9648 24.9617C86.9648 24.0471 87.8101 23.2739 88.7274 23.3432C89.6448 23.3432 90.4208 24.1885 90.3487 25.1031C90.3487 26.0176 89.5034 26.7909 88.5861 26.7216C87.6687 26.6495 86.8927 25.8763 86.9648 24.9617Z" fill="black"></path>
<path d="M82.2367 21.7958C82.2367 20.8091 83.0847 20.0359 84.0714 20.0359C85.058 20.0359 85.834 20.8812 85.834 21.865C85.834 22.8489 84.9887 23.6249 84.0021 23.6249C82.9434 23.6249 82.1674 22.7796 82.2367 21.7958Z" fill="black"></path>
<path d="M76.8081 19.6855C76.8774 18.6296 77.7227 17.7843 78.7814 17.8563C79.84 17.9256 80.6853 18.7709 80.6161 19.8268C80.6161 20.8828 79.6987 21.7253 78.64 21.656C77.6534 21.5839 76.8081 20.7414 76.8081 19.6855Z" fill="black"></path>
<path d="M70.9518 18.8412C71.0239 17.716 71.9385 16.8707 72.9972 16.9428C74.1251 17.012 74.9732 17.9266 74.9011 18.9826C74.8319 20.1078 73.9145 20.9531 72.8558 20.8838C71.7278 20.8117 70.8825 19.8971 70.9518 18.8412Z" fill="black"></path>
<path d="M64.9567 19.2645C65.026 18.1365 65.9433 17.2219 67.1433 17.2219C68.2713 17.294 69.1887 18.2086 69.1887 19.4031C69.1166 20.531 68.202 21.4456 67.002 21.4456C65.874 21.3736 64.9567 20.459 64.9567 19.2645Z" fill="black"></path>
<path d="M59.4527 21.0229C59.5248 19.8284 60.5114 18.8418 61.7114 18.9139C62.9115 18.9832 63.8981 19.9698 63.8261 21.1643C63.7568 22.3616 62.7701 23.3454 61.5701 23.2761C60.3701 23.2041 59.3834 22.2202 59.4527 21.0229Z" fill="black"></path>
<path d="M54.517 23.8357C54.5863 22.5692 55.645 21.5825 56.9143 21.6546C58.1837 21.7239 59.1731 22.7798 59.101 24.0464C59.0317 25.3129 57.973 26.2968 56.7037 26.2275C55.5037 26.1582 54.517 25.1023 54.517 23.8357Z" fill="black"></path>
<path d="M50.3541 27.6367C50.4262 26.2981 51.4821 25.3142 52.8235 25.3142C54.1649 25.3835 55.1515 26.4394 55.1515 27.778C55.0795 29.1139 54.0235 30.0977 52.6821 30.0977C51.3435 30.0285 50.2848 28.9725 50.3541 27.6367Z" fill="black"></path>
<path d="M47.109 32.2075C47.1811 30.7996 48.3091 29.7464 49.7197 29.8157C51.1304 29.885 52.1891 31.013 52.1171 32.4181C52.0478 33.826 50.9198 34.882 49.5091 34.8099C48.0984 34.7406 47.0397 33.6154 47.109 32.2075Z" fill="black"></path>
<path d="M44.9214 37.4845C44.9934 36.0766 46.1935 34.9514 47.6041 34.9514C49.0148 35.0235 50.1428 36.218 50.1428 37.6259C50.0707 39.0338 48.8735 40.159 47.4628 40.159C45.9801 40.159 44.8521 38.9617 44.9214 37.4845Z" fill="black"></path>
<path d="M43.9354 43.3257C44.0074 41.8485 45.2047 40.654 46.6874 40.7233C48.1674 40.7926 49.3674 41.9899 49.2954 43.4671C49.2261 44.9443 48.026 46.1415 46.5461 46.0722C45.0633 46.0002 43.8661 44.8057 43.9354 43.3257Z" fill="black"></path>
</svg><style>@media (prefers-color-scheme: light) { :root { filter: none; } }
@media (prefers-color-scheme: dark) { :root { filter: invert(100%); } }
</style></svg>